<svg width="22" height="36" viewBox="0 0 22 36" fill="none" xmlns="http://www.w3.org/2000/svg">
<path d="M0 26.976C0.192 27.04 0.544 27.2 1.056 27.456C1.568 27.712 2.176 27.968 2.88 28.224C4.672 28.8 6.176 29.088 7.392 29.088C8.608 29.088 9.568 28.896 10.272 28.512C11.04 28.064 11.488 27.328 11.616 26.304C11.808 25.216 11.648 24.32 11.136 23.616C10.624 22.848 9.952 22.112 9.12 21.408C8.352 20.704 7.488 20 6.528 19.296C5.568 18.528 4.704 17.664 3.936 16.704C2.144 14.592 1.44 12.128 1.824 9.312C2.208 6.496 3.488 4.256 5.664 2.592C7.904 0.864 10.88 0 14.592 0C17.472 0 18.912 0.603999 21.6 1.5V7.872C21.088 7.808 20.192 7.584 18.912 7.2C17.696 6.816 16.384 6.624 14.976 6.624C12.288 6.624 10.784 7.52 10.464 9.312C10.336 10.144 10.528 10.912 11.04 11.616C11.616 12.256 12.32 12.928 13.152 13.632C13.984 14.272 14.912 14.976 15.936 15.744C16.96 16.448 17.888 17.248 18.72 18.144C20.64 20.192 21.376 22.624 20.928 25.44C20.672 28.256 19.456 30.656 17.28 32.64C14.976 34.624 11.84 35.616 7.872 35.616C5.248 35.616 3.264 35.36 1.92 34.848C-0.384 34.016 0.576006 33.088 5.96046e-06 32.64L0 26.976Z" fill="#27007A"/>
</svg>
